# Blender v2.78 (sub 0) OBJ File: 'D1.blend'
# www.blender.org
mtllib D1.mtl
o Sphere
v -0.738873 1.530613 -0.734236
v -0.515192 0.705310 0.045206
v -0.603587 0.471710 -0.104039
v -0.681630 0.245980 -0.209907
v -0.362894 0.918239 -0.453268
v -0.383694 0.627598 -0.445712
v -0.953304 0.051240 -0.810211
v 0.362893 0.918239 -0.453268
v 0.383693 0.627598 -0.445712
v 0.953304 0.051240 -0.810211
v 0.738873 1.530613 -0.734236
v 0.515192 0.705310 0.045206
v 0.603586 0.471710 -0.104039
v 0.681630 0.245980 -0.209908
v 0.430520 1.023681 0.166040
v 0.515192 0.705310 0.299194
v 0.567498 0.471710 0.827589
v 0.567498 0.209462 0.827589
v 0.206770 0.644683 1.200605
v 0.189774 0.320017 1.963501
v 0.224743 0.049591 1.811161
v -0.000000 0.968545 -0.284158
v -0.206770 0.644683 1.200604
v -0.189774 0.320017 1.963501
v -0.224743 0.049591 1.812121
v -0.430520 1.023681 0.166040
v -0.515192 0.705310 0.299194
v -0.567498 0.471710 0.827589
v -0.567498 0.209462 0.827589
v -0.000000 0.305010 -0.327257
v -0.149728 0.985908 -0.177585
v 0.149728 0.985908 -0.177585
v 0.643586 0.233807 0.125238
v 0.605542 0.221635 0.479909
v 0.591557 0.471710 0.195818
v 0.579527 0.471710 0.515199
v -0.605542 0.221635 0.479910
v -0.643586 0.233807 0.125239
v -0.579528 0.471710 0.515199
v -0.591557 0.471710 0.195818
v 0.677848 0.368771 0.556227
v -0.677848 0.368771 0.556227
v 0.747673 0.408365 0.160193
v -0.739862 0.408365 0.160193
v 0.802522 0.428368 -0.207506
v -0.794711 0.428368 -0.207505
v 0.000000 1.023681 0.166040
v -0.158001 0.918239 -0.358119
v -0.167057 0.591749 -0.378802
v 0.158001 0.918239 -0.358120
v 0.167057 0.591749 -0.378802
vt 0.8216 0.4896
vt 0.7779 0.5115
vt 0.7845 0.4826
vt 0.7220 0.9861
vt 0.7118 0.9655
vt 0.7529 0.9485
vt 0.8420 0.7078
vt 0.8424 0.6848
vt 0.8563 0.7061
vt 0.8197 0.7078
vt 0.8056 0.7060
vt 0.8196 0.6851
vt 0.0156 0.9579
vt 0.0299 0.9090
vt 0.0929 0.9930
vt 0.7532 0.9716
vt 0.8725 0.8847
vt 0.8133 0.8860
vt 0.8595 0.8624
vt 0.6164 0.8785
vt 0.6694 0.8969
vt 0.5790 0.9160
vt 0.5010 0.8970
vt 0.8308 0.7258
vt 0.4227 0.0317
vt 0.4623 0.1341
vt 0.0376 0.1238
vt 0.6465 0.8754
vt 0.6773 0.8723
vt 0.9906 0.3236
vt 0.9019 0.4232
vt 0.8179 0.0097
vt 0.8576 0.6881
vt 0.2544 0.5021
vt 0.2372 0.6537
vt 0.0518 0.6535
vt 0.0348 0.5021
vt 0.5271 0.7692
vt 0.5279 0.8093
vt 0.5079 0.8093
vt 0.5088 0.7692
vt 0.8733 0.9882
vt 0.8719 0.9620
vt 0.8924 0.9770
vt 0.0514 0.0325
vt 0.6939 0.8946
vt 0.4900 0.3236
vt 0.6627 0.0097
vt 0.5787 0.4232
vt 0.9594 0.7995
vt 0.9618 0.7872
vt 0.9698 0.8094
vt 0.7043 0.9388
vt 0.6917 0.9639
vt 0.8159 0.9919
vt 0.8635 0.9432
vt 0.9181 0.9845
vt 0.8960 0.9715
vt 0.9197 0.9542
vt 0.4875 0.9376
vt 0.4966 0.9162
vt 0.4968 0.9447
vt 0.9295 0.9323
vt 0.9673 0.9391
vt 0.9846 0.9888
vt 0.9846 0.9222
vt 0.8309 0.9490
vt 0.8159 0.9344
vt 0.1158 0.9909
vt 0.1011 0.9421
vt 0.1780 0.9062
vt 0.9502 0.5131
vt 0.9036 0.4844
vt 0.9457 0.4802
vt 0.9595 0.6836
vt 0.9476 0.7131
vt 0.9129 0.6549
vt 0.8418 0.6120
vt 0.8064 0.6610
vt 0.7981 0.6339
vt 0.6852 0.9275
vt 0.5060 0.9374
vt 0.6485 0.9794
vt 0.6732 0.9816
vt 0.6983 0.9840
vt 0.9569 0.8860
vt 0.9220 0.8841
vt 0.9565 0.8703
vt 0.9156 0.8652
vt 0.9332 0.8481
vt 0.7062 0.8693
vt 0.8452 0.7649
vt 0.8933 0.7750
vt 0.8793 0.7912
vt 0.9335 0.7834
vt 0.9258 0.7975
vt 0.8912 0.8141
vt 0.8366 0.8087
vt 0.9373 0.8141
vt 0.8787 0.8379
vt 0.9713 0.8606
vt 0.8128 0.8322
vt 0.6177 0.9490
vt 0.5541 0.9652
vt 0.0120 0.8181
vt 0.2731 0.8950
vt 0.2051 0.8885
vt 0.2074 0.6639
vt 0.2754 0.6588
vt 0.0127 0.7305
vt 0.4324 0.7785
vt 0.8046 0.6050
vt 0.8015 0.5670
vt 0.9550 0.6507
vt 0.9622 0.6085
vt 0.3447 0.6519
vt 0.4101 0.6450
vt 0.3422 0.9033
vt 0.4075 0.9115
vt 0.7403 0.4232
vt 0.7446 0.8867
vt 0.7446 0.9149
vt 0.4542 0.3673
vt 0.4692 0.4645
vt 0.0592 0.3677
vt 0.0171 0.4769
vt 0.8045 0.6884
vt 0.8216 0.6721
vt 0.8309 0.6791
vt 0.4775 0.4878
vt 0.7127 0.4882
vt 0.7140 0.7276
vt 0.4734 0.7307
vt 0.8402 0.6719
vn 0.7437 0.6570 0.1235
vn -0.9069 0.4087 -0.1025
vn -0.3025 0.0519 -0.9517
vn 0.3025 0.0519 -0.9517
vn 0.8320 0.4438 -0.3330
vn -0.8496 0.0471 -0.5253
vn 0.7173 0.6962 0.0276
vn 0.6247 0.7352 0.2632
vn 0.6518 0.6925 0.3092
vn 0.0000 -0.1769 -0.9842
vn -0.9497 -0.0502 0.3091
vn 0.9545 0.2961 0.0360
vn 0.8722 0.3671 0.3231
vn -0.4206 -0.0536 -0.9057
vn 0.0010 -0.4896 0.8719
vn 0.0000 0.9201 0.3916
vn -0.0000 0.9940 -0.1093
vn -0.9444 0.0000 0.3288
vn 0.9505 0.3107 -0.0000
vn -0.8722 0.3671 0.3231
vn 0.4114 0.2666 -0.8716
vn -0.9664 0.2570 0.0000
vn -0.9217 0.1033 0.3738
vn 0.0286 0.9922 -0.1215
vn 0.6484 -0.6082 -0.4579
vn 0.4787 0.8249 0.3005
vn -0.7573 0.1764 -0.6288
vn -0.4787 0.8249 0.3005
vn -0.6484 -0.6082 -0.4579
vn 0.7573 0.1764 -0.6288
vn 0.2951 0.0002 -0.9555
vn -0.2951 0.0002 -0.9555
vn -0.8320 0.4438 -0.3330
vn -0.7437 0.6570 0.1235
vn 0.4118 0.1604 -0.8971
vn -0.4118 0.1604 -0.8971
vn 0.9664 0.2570 -0.0000
vn 0.9217 0.1033 0.3738
vn -0.0286 0.9922 -0.1215
vn -0.9542 0.2968 0.0367
vn -0.9424 0.3324 0.0378
vn 0.2172 0.9761 0.0087
vn -0.1135 0.2597 -0.9590
vn 0.9424 0.3324 0.0378
vn 0.9542 0.2968 0.0367
vn -0.7173 0.6962 0.0276
vn -0.3958 0.9182 0.0149
vn -0.5275 0.1723 -0.8319
vn -0.9263 0.0000 0.3767
vn -0.8777 -0.4726 0.0795
vn 0.1200 0.2582 -0.9586
vn -0.8666 -0.4932 0.0760
vn -0.9132 0.0377 0.4057
vn -0.2258 0.9741 0.0091
vn -0.8469 -0.5261 0.0770
vn -0.8940 0.0640 0.4434
vn 0.5275 0.1723 -0.8319
vn 0.3787 0.9254 0.0143
vn 0.8872 0.0582 0.4578
vn 0.8308 -0.5516 0.0743
vn -0.3961 0.2741 -0.8764
vn 0.8501 -0.5216 0.0733
vn 0.9056 0.0345 0.4228
vn 0.8777 -0.4726 0.0795
vn 0.9263 0.0000 0.3767
vn -0.9545 0.2961 0.0360
vn -0.9505 0.3107 0.0000
vn -0.6247 0.7352 0.2632
vn -0.6518 0.6925 0.3092
vn 0.4706 -0.8821 0.0206
vn -0.4706 -0.8821 0.0206
vn -0.0003 -0.9929 -0.1186
vn -0.1267 -0.9589 0.2537
vn 0.1267 -0.9589 0.2537
vn 0.0248 -0.9923 -0.1211
vn -0.0248 -0.9923 -0.1211
vn 0.0801 -0.9959 -0.0428
vn 0.0785 -0.9959 -0.0451
vn -0.0801 -0.9959 -0.0428
vn -0.0785 -0.9959 -0.0451
vn 0.0000 0.9390 0.3440
vn 0.8496 0.0471 -0.5253
vn 0.9069 0.4087 -0.1025
vn 0.9443 0.0000 0.3291
vn 0.9497 -0.0512 0.3090
vn 0.4206 -0.0536 -0.9057
vn 0.1638 0.9212 -0.3528
vn -0.1358 0.9297 -0.3423
vn -0.0000 0.0632 -0.9980
vn -0.1638 0.9212 -0.3528
vn 0.1358 0.9297 -0.3423
vn -0.0000 0.8269 -0.5624
usemtl None
s off
f 10/1/1 9/2/1 14/3/1
f 3/4/2 2/5/2 5/6/2
f 51/7/3 50/8/3 9/9/3
f 49/10/4 6/11/4 48/12/4
f 13/13/5 14/14/5 9/15/5
f 6/16/6 3/4/6 5/6/6
f 36/17/7 17/18/7 41/19/7
f 17/20/8 16/21/8 19/22/8
f 20/23/9 17/20/9 19/22/9
f 51/7/10 30/24/10 49/10/10
f 25/25/11 24/26/11 28/27/11
f 36/28/12 35/29/12 16/21/12
f 16/30/13 15/31/13 19/32/13
f 9/9/14 50/8/14 8/33/14
f 21/34/15 20/35/15 24/36/15 25/37/15
f 20/38/16 19/39/16 23/40/16 24/41/16
f 31/42/17 26/43/17 47/44/17
f 29/45/18 25/25/18 28/27/18
f 12/46/19 16/21/19 35/29/19
f 27/47/20 23/48/20 26/49/20
f 46/50/21 3/51/21 4/52/21
f 26/53/22 2/5/22 27/54/22
f 1/55/23 2/56/23 26/43/23
f 32/57/17 47/58/17 15/59/17
f 31/60/24 47/61/24 22/62/24
f 12/63/25 8/64/25 11/65/25
f 1/55/26 26/43/26 31/42/26
f 8/64/27 32/66/27 11/65/27
f 15/59/28 11/65/28 32/57/28
f 2/56/29 1/55/29 5/67/29
f 5/67/30 1/55/30 31/68/30
f 6/11/31 49/10/31 30/24/31
f 51/7/32 9/9/32 30/24/32
f 4/69/33 3/70/33 6/71/33
f 6/72/34 7/73/34 4/74/34
f 6/75/35 30/76/35 7/77/35
f 10/78/36 30/79/36 9/80/36
f 16/21/37 12/46/37 15/81/37
f 12/63/38 11/65/38 15/59/38
f 32/82/39 22/62/39 47/61/39
f 28/83/40 27/54/40 39/84/40
f 3/4/41 40/85/41 2/5/41
f 13/86/42 35/87/42 45/88/42
f 35/87/43 43/89/43 33/90/43
f 13/91/44 12/46/44 35/29/44
f 17/20/45 36/28/45 16/21/45
f 28/92/46 39/93/46 42/94/46
f 39/93/47 40/95/47 44/96/47
f 42/94/48 39/93/48 37/97/48
f 28/92/49 42/94/49 29/98/49
f 42/94/50 37/97/50 29/98/50
f 44/96/51 40/95/51 38/99/51
f 38/99/52 37/97/52 44/96/52
f 39/93/53 44/96/53 37/97/53
f 3/51/54 46/50/54 40/95/54
f 38/99/55 46/50/55 4/52/55
f 40/95/56 46/50/56 38/99/56
f 41/19/57 34/100/57 36/17/57
f 43/89/58 35/87/58 36/17/58
f 35/87/59 33/90/59 45/88/59
f 45/88/60 33/90/60 14/101/60
f 14/101/61 13/86/61 45/88/61
f 34/100/62 33/90/62 43/89/62
f 36/17/63 34/100/63 43/89/63
f 18/102/64 34/100/64 41/19/64
f 17/18/65 18/102/65 41/19/65
f 40/85/66 39/84/66 27/54/66
f 2/5/67 40/85/67 27/54/67
f 27/54/68 28/83/68 23/103/68
f 23/103/69 28/83/69 24/104/69
f 21/105/70 34/106/70 18/107/70
f 29/108/71 37/109/71 25/110/71
f 21/105/72 25/110/72 30/111/72
f 14/112/73 30/113/73 10/78/73
f 4/114/74 7/77/74 30/115/74
f 34/106/75 21/105/75 30/111/75
f 25/110/76 37/109/76 30/111/76
f 37/109/77 38/116/77 30/111/77
f 38/116/78 4/117/78 30/111/78
f 34/106/79 30/111/79 33/118/79
f 33/118/80 30/111/80 14/119/80
f 26/49/81 23/48/81 47/120/81
f 19/32/81 15/31/81 47/120/81
f 23/48/81 19/32/81 47/120/81
f 9/121/82 8/122/82 13/91/82
f 12/46/83 13/91/83 8/122/83
f 18/123/84 17/124/84 21/125/84
f 20/126/85 21/125/85 17/124/85
f 6/11/86 5/127/86 48/12/86
f 31/128/87 48/12/87 5/127/87
f 31/128/88 22/129/88 48/12/88
f 51/130/89 49/131/89 48/132/89 50/133/89
f 32/134/90 8/33/90 50/8/90
f 32/134/91 50/8/91 22/129/91
f 48/12/92 22/129/92 50/8/92
